<svg t="1744622689001" class="icon" viewBox="0 0 1024 1024" version="1.1" xmlns="http://www.w3.org/2000/svg" p-id="1613" width="200" height="200"><path d="M329.8 246.88a180.62 246.88 0 1 0 361.24 0 180.62 246.88 0 1 0-361.24 0Z" fill="#0CACC1" p-id="1614"></path><path d="M411.96 286.09a98.46 207.67 0 1 0 196.92 0 98.46 207.67 0 1 0-196.92 0Z" fill="#087D87" p-id="1615"></path><path d="M876.92 501.84c-96.41 96.41-231.75 117.39-302.28 46.85s-49.56-205.88 46.85-302.29S853.24 129 923.78 199.55s49.56 205.88-46.86 302.29z" fill="#68C7D7" p-id="1616"></path><path d="M559.436663 533.338768a98.46 207.67 47.34 1 0 305.435994-281.453671 98.46 207.67 47.34 1 0-305.435994 281.453671Z" fill="#48BFD4" p-id="1617"></path><path d="M134.766373 501.839284a246.88 180.62 45 1 0 255.435254-255.435254 246.88 180.62 45 1 0-255.435254 255.435254Z" fill="#68C7D7" p-id="1618"></path><path d="M214.262478 465.034378a207.67 98.46 42.66 1 0 133.442136-144.812578 207.67 98.46 42.66 1 0-133.442136 144.812578Z" fill="#48BFD4" p-id="1619"></path><path d="M325.22 777.12a180.62 246.88 0 1 0 361.24 0 180.62 246.88 0 1 0-361.24 0Z" fill="#68C7D7" p-id="1620"></path><path d="M408.72 723.16a98.46 207.67 0 1 0 196.92 0 98.46 207.67 0 1 0-196.92 0Z" fill="#48BFD4" p-id="1621"></path><path d="M90.214013 826.71533a180.62 246.88 45 1 0 349.141045-349.141045 180.62 246.88 45 1 0-349.141045 349.141045Z" fill="#0CACC1" p-id="1622"></path><path d="M222.23 552.73c-92 68.44-140.34 159.3-107.9 202.93s133.36 23.52 225.4-44.92 140.34-159.3 107.89-202.93-133.36-23.52-225.39 44.92z" fill="#087D87" p-id="1623"></path><path d="M633.798009 779.871091a246.88 180.62 45 1 0 255.435254-255.435253 246.88 180.62 45 1 0-255.435254 255.435253Z" fill="#0CACC1" p-id="1624"></path><path d="M690.466714 718.904614a207.67 98.46 36.64 1 0 117.518942-158.008812 207.67 98.46 36.64 1 0-117.518942 158.008812Z" fill="#087D87" p-id="1625"></path><path d="M510.417929 515.495m-96.633213 96.633213a136.66 136.66 0 1 0 193.266426-193.266426 136.66 136.66 0 1 0-193.266426 193.266426Z" fill="#F3EC1F" p-id="1626"></path><path d="M510.417929 515.495m-76.508954 76.508954a108.2 108.2 0 1 0 153.017908-153.017908 108.2 108.2 0 1 0-153.017908 153.017908Z" fill="#FCD44E" p-id="1627"></path></svg>
